<?xml version="1.0" ?><svg style="enable-background:new 0 0 48 48;" version="1.1" viewBox="0 0 48 48" xml:space="preserve" xmlns="http://www.w3.org/2000/svg" xmlns:xlink="http://www.w3.org/1999/xlink"><g id="Icons"><g><path d="M24.00001,26.73106h-0.00001c-2.62272,0-4.76859-2.14586-4.76859-4.76859v-4.3272    c0-2.62272,2.14586-4.76859,4.76859-4.76859h0.00001c2.62272,0,4.76859,2.14586,4.76859,4.76859v4.3272    C28.76859,24.5852,26.62273,26.73106,24.00001,26.73106z" style="fill:#F9D9C0;"/><path d="M36.93381,35.13331c0.00006-11.203-25.86755-11.203-25.86761,0H36.93381z" style="fill:#0097D3;"/><path d="    M24.00001,26.73106h-0.00001c-2.62272,0-4.76859-2.14586-4.76859-4.76859v-4.3272c0-2.62272,2.14586-4.76859,4.76859-4.76859    h0.00001c2.62272,0,4.76859,2.14586,4.76859,4.76859v4.3272C28.76859,24.5852,26.62273,26.73106,24.00001,26.73106z" style="fill:none;stroke:#303030;stroke-width:0.7;stroke-linecap:round;stroke-linejoin:round;stroke-miterlimit:10;"/><path d="    M36.93381,35.13331c0.00006-11.203-25.86755-11.203-25.86761,0H36.93381z" style="fill:none;stroke:#303030;stroke-width:0.7;stroke-linecap:round;stroke-linejoin:round;stroke-miterlimit:10;"/></g></g></svg>